<svg width="153" height="26" viewBox="0 0 153 26" fill="none" xmlns="http://www.w3.org/2000/svg">
<path d="M37.825 17.775L37.7 14.725L47.625 4.5H50.475L42.8 12.6L41.4 14.15L37.825 17.775ZM35.625 22V4.5H38.125V22H35.625ZM48.025 22L40.85 13.65L42.525 11.8L50.95 22H48.025ZM58.0828 22.15C56.7495 22.15 55.5661 21.8583 54.5328 21.275C53.4995 20.6917 52.6828 19.8917 52.0828 18.875C51.4828 17.8417 51.1828 16.675 51.1828 15.375C51.1828 14.0583 51.4828 12.8917 52.0828 11.875C52.6828 10.8583 53.4995 10.0667 54.5328 9.5C55.5661 8.91667 56.7495 8.625 58.0828 8.625C59.3995 8.625 60.5745 8.91667 61.6078 9.5C62.6578 10.0667 63.4745 10.8583 64.0578 11.875C64.6578 12.875 64.9578 14.0417 64.9578 15.375C64.9578 16.6917 64.6578 17.8583 64.0578 18.875C63.4745 19.8917 62.6578 20.6917 61.6078 21.275C60.5745 21.8583 59.3995 22.15 58.0828 22.15ZM58.0828 20.05C58.9328 20.05 59.6911 19.8583 60.3578 19.475C61.0411 19.0917 61.5745 18.55 61.9578 17.85C62.3411 17.1333 62.5328 16.3083 62.5328 15.375C62.5328 14.425 62.3411 13.6083 61.9578 12.925C61.5745 12.225 61.0411 11.6833 60.3578 11.3C59.6911 10.9167 58.9328 10.725 58.0828 10.725C57.2328 10.725 56.4745 10.9167 55.8078 11.3C55.1411 11.6833 54.6078 12.225 54.2078 12.925C53.8078 13.6083 53.6078 14.425 53.6078 15.375C53.6078 16.3083 53.8078 17.1333 54.2078 17.85C54.6078 18.55 55.1411 19.0917 55.8078 19.475C56.4745 19.8583 57.2328 20.05 58.0828 20.05ZM75.102 8.625C76.1853 8.625 77.1353 8.83333 77.952 9.25C78.7853 9.66667 79.4353 10.3 79.902 11.15C80.3686 12 80.602 13.075 80.602 14.375V22H78.202V14.65C78.202 13.3667 77.8853 12.4 77.252 11.75C76.6353 11.1 75.7603 10.775 74.627 10.775C73.777 10.775 73.0353 10.9417 72.402 11.275C71.7686 11.6083 71.277 12.1 70.927 12.75C70.5936 13.4 70.427 14.2083 70.427 15.175V22H68.027V8.75H70.327V12.325L69.952 11.375C70.3853 10.5083 71.052 9.83333 71.952 9.35C72.852 8.86667 73.902 8.625 75.102 8.625ZM88.5936 22.15C87.4936 22.15 86.4436 22 85.4436 21.7C84.4602 21.4 83.6852 21.0333 83.1186 20.6L84.1186 18.7C84.6852 19.0833 85.3852 19.4083 86.2186 19.675C87.0519 19.9417 87.9019 20.075 88.7686 20.075C89.8852 20.075 90.6852 19.9167 91.1686 19.6C91.6686 19.2833 91.9186 18.8417 91.9186 18.275C91.9186 17.8583 91.7686 17.5333 91.4686 17.3C91.1686 17.0667 90.7686 16.8917 90.2686 16.775C89.7852 16.6583 89.2436 16.5583 88.6436 16.475C88.0436 16.375 87.4436 16.2583 86.8436 16.125C86.2436 15.975 85.6936 15.775 85.1936 15.525C84.6936 15.2583 84.2936 14.9 83.9936 14.45C83.6936 13.9833 83.5436 13.3667 83.5436 12.6C83.5436 11.8 83.7686 11.1 84.2186 10.5C84.6686 9.9 85.3019 9.44167 86.1186 9.125C86.9519 8.79167 87.9352 8.625 89.0686 8.625C89.9352 8.625 90.8102 8.73333 91.6936 8.95C92.5936 9.15 93.3269 9.44167 93.8936 9.825L92.8686 11.725C92.2686 11.325 91.6436 11.05 90.9936 10.9C90.3436 10.75 89.6936 10.675 89.0436 10.675C87.9936 10.675 87.2102 10.85 86.6936 11.2C86.1769 11.5333 85.9186 11.9667 85.9186 12.5C85.9186 12.95 86.0686 13.3 86.3686 13.55C86.6852 13.7833 87.0852 13.9667 87.5686 14.1C88.0686 14.2333 88.6186 14.35 89.2186 14.45C89.8186 14.5333 90.4186 14.65 91.0186 14.8C91.6186 14.9333 92.1602 15.125 92.6436 15.375C93.1436 15.625 93.5436 15.975 93.8436 16.425C94.1602 16.875 94.3186 17.475 94.3186 18.225C94.3186 19.025 94.0852 19.7167 93.6186 20.3C93.1519 20.8833 92.4936 21.3417 91.6436 21.675C90.7936 21.9917 89.7769 22.15 88.5936 22.15ZM101.618 22.15C100.285 22.15 99.2513 21.7917 98.518 21.075C97.7846 20.3583 97.418 19.3333 97.418 18V5.85H99.818V17.9C99.818 18.6167 99.993 19.1667 100.343 19.55C100.71 19.9333 101.226 20.125 101.893 20.125C102.643 20.125 103.268 19.9167 103.768 19.5L104.518 21.225C104.151 21.5417 103.71 21.775 103.193 21.925C102.693 22.075 102.168 22.15 101.618 22.15ZM95.168 10.725V8.75H103.618V10.725H95.168ZM107.17 22V8.75H109.47V12.35L109.245 11.45C109.611 10.5333 110.228 9.83333 111.095 9.35C111.961 8.86667 113.028 8.625 114.295 8.625V10.95C114.195 10.9333 114.095 10.925 113.995 10.925C113.911 10.925 113.828 10.925 113.745 10.925C112.461 10.925 111.445 11.3083 110.695 12.075C109.945 12.8417 109.57 13.95 109.57 15.4V22H107.17ZM122.748 22.15C121.615 22.15 120.615 21.9417 119.748 21.525C118.898 21.1083 118.232 20.475 117.748 19.625C117.282 18.7583 117.048 17.675 117.048 16.375V8.75H119.448V16.1C119.448 17.4 119.757 18.375 120.373 19.025C121.007 19.675 121.89 20 123.023 20C123.857 20 124.582 19.8333 125.198 19.5C125.815 19.15 126.29 18.65 126.623 18C126.957 17.3333 127.123 16.5333 127.123 15.6V8.75H129.523V22H127.248V18.425L127.623 19.375C127.19 20.2583 126.54 20.9417 125.673 21.425C124.807 21.9083 123.832 22.15 122.748 22.15ZM135.792 18.8L135.842 15.725L143.467 8.75H146.367L140.517 14.5L139.217 15.6L135.792 18.8ZM133.842 22V3.45H136.242V22H133.842ZM143.967 22L138.767 15.55L140.317 13.625L146.917 22H143.967Z" fill="#101010"/>
<path d="M11.3219 10.6535V3.05884H4.58813V22.1765H9.73752L22.9411 8.16561H14.0947L11.3219 10.6535Z" fill="#F6B61B"/>
<rect x="16.0588" y="15.2942" width="6.88235" height="6.88235" fill="#F6B61B"/>
</svg>
