<svg width="18" height="18" viewBox="0 0 18 18" fill="none" xmlns="http://www.w3.org/2000/svg">
<path d="M0.221484 0.302362C0.1125 0.355097 0 0.530878 0 0.646894C0 0.759394 0.101953 0.945722 0.196875 1.009C0.284766 1.06525 0.400781 1.0758 1.21289 1.08986C2.07422 1.10744 2.13398 1.11096 2.27461 1.1883C2.475 1.29377 2.6543 1.4801 2.75273 1.68049C2.79844 1.77189 3.42773 3.63166 4.14844 5.81486L5.46328 9.78049L5.4 9.94572C5.14336 10.6137 5.15391 10.5785 5.15039 11.0039C5.15039 11.3344 5.16445 11.4504 5.23125 11.6438C5.44922 12.2766 5.96953 12.7512 6.62695 12.9199C6.93281 12.9973 15.1734 13.0008 15.3246 12.9235C15.6129 12.7723 15.6094 12.3574 15.3176 12.1887C15.2578 12.1571 14.2875 12.143 10.9863 12.1289L6.73242 12.1113L6.54258 12.0059C6.34922 11.9004 6.17695 11.7141 6.06094 11.4961C6.01523 11.4047 5.99766 11.2922 5.99414 11.0567C5.99414 10.786 6.0082 10.7051 6.09258 10.5082C6.19102 10.2797 6.19805 10.2727 6.33867 10.2516C6.41953 10.241 8.3918 10.0336 10.7227 9.79103C13.0535 9.54846 15.0469 9.334 15.1523 9.31291C15.5742 9.23205 16.0137 9.01057 16.3266 8.72228C16.5551 8.51135 16.7906 8.13517 16.9102 7.78713C17.0402 7.41096 18.007 3.26955 17.9859 3.18166C17.9613 3.07971 17.8418 2.96017 17.7188 2.91096C17.6625 2.88986 15.1102 2.84064 10.8211 2.78088C7.07344 2.72814 4.0043 2.67892 3.99375 2.66838C3.98672 2.66135 3.89883 2.40119 3.79688 2.09181C3.53672 1.30783 3.4418 1.1215 3.14648 0.822675C2.87578 0.548456 2.53125 0.355097 2.18672 0.284784C2.08125 0.26369 1.63828 0.246112 1.16719 0.246112C0.481641 0.246112 0.312891 0.256659 0.221484 0.302362ZM11.4961 3.62463C14.5406 3.66682 17.0367 3.70549 17.0437 3.71252C17.0508 3.71603 16.8504 4.57033 16.5973 5.61447C16.1191 7.57619 16.0453 7.80471 15.8203 8.04728C15.641 8.23713 15.3879 8.3883 15.1488 8.45158C14.952 8.5008 6.58828 9.38674 6.3 9.38674H6.19102L5.65664 7.759C5.36133 6.86603 4.92891 5.54416 4.68984 4.81994L4.25742 3.5051L5.1082 3.52619C5.57578 3.54025 8.45156 3.58244 11.4961 3.62463Z" fill="#141F39"/>
<path d="M5.34385 14.0485C4.66885 14.1926 4.07823 14.7692 3.92003 15.4371C3.76885 16.084 3.95167 16.7204 4.42276 17.1914C4.9044 17.6731 5.53018 17.8524 6.18409 17.7012C6.51104 17.6239 6.80284 17.4516 7.07002 17.1844C7.48838 16.7661 7.68174 16.2 7.60088 15.6305C7.51299 15.0153 7.11924 14.4739 6.55674 14.2032C6.1419 13.9993 5.77979 13.9536 5.34385 14.0485ZM6.20167 14.9555C6.57081 15.1348 6.76417 15.4618 6.76768 15.8907C6.76768 16.0981 6.7501 16.186 6.68682 16.3125C6.56026 16.5516 6.33878 16.759 6.12432 16.8399C5.27003 17.1598 4.46143 16.3512 4.78135 15.4969C4.88331 15.2227 5.16104 14.9731 5.48448 14.8676C5.6462 14.8149 6.00128 14.8571 6.20167 14.9555Z" fill="#141F39"/>
<path d="M13.2891 14.0484C12.9305 14.1258 12.6387 14.2875 12.3574 14.5688C11.9777 14.9484 11.8125 15.3422 11.8125 15.873C11.8125 16.4074 11.9848 16.8293 12.3645 17.2055C13.0957 17.9367 14.2559 17.9367 14.9871 17.2055C15.3668 16.8293 15.5391 16.4145 15.5391 15.8941C15.5391 15.3387 15.3809 14.9555 14.9941 14.5688C14.7094 14.284 14.4211 14.1258 14.0449 14.0449C13.7461 13.9816 13.5879 13.9816 13.2891 14.0484ZM14.1047 14.9309C14.3156 15.0258 14.509 15.2262 14.618 15.4617C14.8465 15.9609 14.6355 16.5551 14.1434 16.8047C13.9008 16.9313 13.4508 16.9313 13.2082 16.8047C12.6316 16.5129 12.4699 15.8063 12.8531 15.2508C13.1098 14.8816 13.6652 14.7375 14.1047 14.9309Z" fill="#141F39"/>
</svg>
