<svg width="134" height="27" viewBox="0 0 134 27" fill="none" xmlns="http://www.w3.org/2000/svg">
<path d="M130.755 1L120.378 14.3838L132 25.7397" stroke="white" stroke-width="3"/>
<path d="M66.7114 1L55.2973 14.3838L68.0811 25.7397" stroke="white" stroke-width="3"/>
<path d="M117.847 1L106.433 14.3838L119.217 25.7397" stroke="white" stroke-width="3"/>
<path d="M53.9272 1L42.5131 14.3838L55.2969 25.7397" stroke="white" stroke-width="3"/>
<path d="M105.063 1L93.6488 14.3838L106.433 25.7397" stroke="white" stroke-width="3"/>
<path d="M41.144 1L29.7299 14.3838L42.5137 25.7397" stroke="white" stroke-width="3"/>
<path d="M92.2787 1L80.8647 14.3838L93.6484 25.7397" stroke="white" stroke-width="3"/>
<path d="M28.3598 1L16.9457 14.3838L29.7295 25.7397" stroke="white" stroke-width="3"/>
<path d="M78.3334 1L66.9193 14.3838L79.7031 25.7397" stroke="white" stroke-width="3"/>
<path d="M14.4135 1L2.99942 14.3838L15.7832 25.7397" stroke="white" stroke-width="3"/>
</svg>
