<svg width="182" height="27" viewBox="0 0 182 27" fill="none" xmlns="http://www.w3.org/2000/svg">
<path d="M34.65 24V6.5H37.95V13.45H38.4L44.075 6.5H48.3L41 15.125L48.55 24H44.2L38.4 16.9H37.95V24H34.65ZM56.8426 24.35C54.6426 24.35 52.8926 23.75 51.5926 22.55C50.2926 21.3333 49.6426 19.6 49.6426 17.35V13.15C49.6426 10.9 50.2926 9.175 51.5926 7.975C52.8926 6.75833 54.6426 6.15 56.8426 6.15C59.0426 6.15 60.7926 6.75833 62.0926 7.975C63.3926 9.175 64.0426 10.9 64.0426 13.15V17.35C64.0426 19.6 63.3926 21.3333 62.0926 22.55C60.7926 23.75 59.0426 24.35 56.8426 24.35ZM56.8426 21.4C58.0759 21.4 59.0342 21.0417 59.7176 20.325C60.4009 19.6083 60.7426 18.65 60.7426 17.45V13.05C60.7426 11.85 60.4009 10.8917 59.7176 10.175C59.0342 9.45833 58.0759 9.1 56.8426 9.1C55.6259 9.1 54.6676 9.45833 53.9676 10.175C53.2842 10.8917 52.9426 11.85 52.9426 13.05V17.45C52.9426 18.65 53.2842 19.6083 53.9676 20.325C54.6676 21.0417 55.6259 21.4 56.8426 21.4ZM67.4371 24V6.5H73.7121L77.1871 21.75H77.6371V6.5H80.8871V24H74.6121L71.1371 8.75H70.6871V24H67.4371ZM90.7602 24.35C89.4102 24.35 88.2185 24.1083 87.1852 23.625C86.1518 23.1417 85.3435 22.45 84.7602 21.55C84.1768 20.65 83.8852 19.5667 83.8852 18.3V17.6H87.1352V18.3C87.1352 19.35 87.4602 20.1417 88.1102 20.675C88.7602 21.1917 89.6435 21.45 90.7602 21.45C91.8935 21.45 92.7352 21.225 93.2852 20.775C93.8518 20.325 94.1352 19.75 94.1352 19.05C94.1352 18.5667 93.9935 18.175 93.7102 17.875C93.4435 17.575 93.0435 17.3333 92.5102 17.15C91.9935 16.95 91.3602 16.7667 90.6102 16.6L90.0352 16.475C88.8352 16.2083 87.8018 15.875 86.9352 15.475C86.0852 15.0583 85.4268 14.5167 84.9602 13.85C84.5102 13.1833 84.2852 12.3167 84.2852 11.25C84.2852 10.1833 84.5352 9.275 85.0352 8.525C85.5518 7.75833 86.2685 7.175 87.1852 6.775C88.1185 6.35833 89.2102 6.15 90.4602 6.15C91.7102 6.15 92.8185 6.36667 93.7852 6.8C94.7685 7.21667 95.5352 7.85 96.0852 8.7C96.6518 9.53333 96.9352 10.5833 96.9352 11.85V12.6H93.6852V11.85C93.6852 11.1833 93.5518 10.65 93.2852 10.25C93.0352 9.83333 92.6685 9.53333 92.1852 9.35C91.7018 9.15 91.1268 9.05 90.4602 9.05C89.4602 9.05 88.7185 9.24167 88.2352 9.625C87.7685 9.99167 87.5352 10.5 87.5352 11.15C87.5352 11.5833 87.6435 11.95 87.8602 12.25C88.0935 12.55 88.4352 12.8 88.8852 13C89.3352 13.2 89.9102 13.375 90.6102 13.525L91.1852 13.65C92.4352 13.9167 93.5185 14.2583 94.4352 14.675C95.3685 15.0917 96.0935 15.6417 96.6102 16.325C97.1268 17.0083 97.3852 17.8833 97.3852 18.95C97.3852 20.0167 97.1102 20.9583 96.5602 21.775C96.0268 22.575 95.2602 23.2083 94.2602 23.675C93.2768 24.125 92.1102 24.35 90.7602 24.35ZM103.835 24V9.5H98.7348V6.5H112.235V9.5H107.135V24H103.835ZM114.982 24V6.5H122.582C123.682 6.5 124.64 6.69167 125.457 7.075C126.274 7.45833 126.907 8 127.357 8.7C127.807 9.4 128.032 10.225 128.032 11.175V11.475C128.032 12.525 127.782 13.375 127.282 14.025C126.782 14.675 126.165 15.15 125.432 15.45V15.9C126.099 15.9333 126.615 16.1667 126.982 16.6C127.349 17.0167 127.532 17.575 127.532 18.275V24H124.232V18.75C124.232 18.35 124.124 18.025 123.907 17.775C123.707 17.525 123.365 17.4 122.882 17.4H118.282V24H114.982ZM118.282 14.4H122.232C123.015 14.4 123.624 14.1917 124.057 13.775C124.507 13.3417 124.732 12.775 124.732 12.075V11.825C124.732 11.125 124.515 10.5667 124.082 10.15C123.649 9.71667 123.032 9.5 122.232 9.5H118.282V14.4ZM138.028 24.35C136.595 24.35 135.361 24.0917 134.328 23.575C133.311 23.0417 132.528 22.2917 131.978 21.325C131.445 20.3417 131.178 19.1833 131.178 17.85V6.5H134.478V17.95C134.478 19.0167 134.778 19.8583 135.378 20.475C135.995 21.0917 136.878 21.4 138.028 21.4C139.178 21.4 140.053 21.0917 140.653 20.475C141.27 19.8583 141.578 19.0167 141.578 17.95V6.5H144.878V17.85C144.878 19.1833 144.603 20.3417 144.053 21.325C143.52 22.2917 142.736 23.0417 141.703 23.575C140.686 24.0917 139.461 24.35 138.028 24.35ZM148.575 24V6.5H151.875V13.45H152.325L158 6.5H162.225L154.925 15.125L162.475 24H158.125L152.325 16.9H151.875V24H148.575Z" fill="white"/>
<path d="M16.875 13.4177H12.8571V23.1431H3.85714V3.85742L0 5.54271V27.0003H16.875V13.4177Z" fill="white"/>
<path d="M7.55273 1.07427V5.14286L10.9277 3.85714L20.5706 7.71429V27H24.4277V5.72944L9.97393 0L7.55273 1.07427Z" fill="#F6B61B"/>
</svg>
