<svg width="182" height="27" viewBox="0 0 182 27" fill="none" xmlns="http://www.w3.org/2000/svg">
<path d="M49.525 7.5L41.9 14.75L49.275 25H45.225L39.6 16.95L37.75 18.7V25H34.45V7.5H37.75V14.4H38.05L45.075 7.5H49.525ZM49.9971 14.4C49.9971 9.925 52.7221 7.15 57.1971 7.15C61.6721 7.15 64.3971 9.925 64.3971 14.4V18.1C64.3971 22.7 61.6721 25.35 57.1971 25.35C52.7221 25.35 49.9971 22.7 49.9971 18.1V14.4ZM53.2971 14.25V18.25C53.2971 20.775 54.5471 22.4 57.1971 22.4C59.9221 22.4 61.0971 20.675 61.0971 18.25V14.25C61.0971 11.775 59.6471 10.1 57.1971 10.1C54.6721 10.1 53.2971 11.875 53.2971 14.25ZM67.0906 7.5H72.9406L76.9406 21.9H77.2406V7.5H80.5406V25H74.6906L70.6906 10.6H70.3906V25H67.0906V7.5ZM89.923 7.15C93.673 7.15 96.398 9.2 96.398 12.7V13.45H93.198V12.925C93.198 10.925 91.923 10.05 89.923 10.05C88.173 10.05 87.098 10.925 87.098 12.125C87.098 13.775 88.648 14.075 90.748 14.55L90.973 14.6C94.573 15.4 96.698 16.675 96.698 19.85C96.698 23.375 93.948 25.35 90.223 25.35C85.948 25.35 83.198 23.05 83.198 18.95V18.4H86.448V18.85C86.448 21 87.673 22.45 90.323 22.45C92.448 22.45 93.448 21.325 93.448 20.025C93.448 18.5 92.148 18 89.848 17.5L89.623 17.45C85.998 16.65 83.848 15.4 83.848 12.225C83.848 9.1 86.523 7.15 89.923 7.15ZM98.0906 7.5H111.991V10.5H106.691V25H103.391V10.5H98.0906V7.5ZM127.447 13.025C127.447 15.675 125.947 17.575 123.697 18.25L127.247 25H123.597L120.372 18.525H117.447V25H114.147V7.525H121.847C125.147 7.525 127.447 9.7 127.447 13.025ZM117.447 10.525V15.525H121.522C123.097 15.525 124.147 14.55 124.147 13.025C124.147 11.5 123.097 10.525 121.522 10.525H117.447ZM129.953 7.5H133.253V18.95C133.253 21.075 134.528 22.4 136.803 22.4C139.078 22.4 140.353 21.075 140.353 18.95V7.5H143.653V18.8C143.653 22.8 141.178 25.35 136.803 25.35C132.428 25.35 129.953 22.8 129.953 18.8V7.5ZM162.034 7.5L154.409 14.75L161.784 25H157.734L152.109 16.95L150.259 18.7V25H146.959V7.5H150.259V14.4H150.559L157.584 7.5H162.034Z" fill="#101010"/>
<path d="M16.875 13.4177H12.8571V23.1431H3.85714V3.85742L0 5.54271V27.0003H16.875V13.4177Z" fill="#101010"/>
<path d="M7.55273 1.07427V5.14286L10.9277 3.85714L20.5706 7.71429V27H24.4277V5.72944L9.97393 0L7.55273 1.07427Z" fill="#F6B61B"/>
</svg>
